<svg xmlns="http://www.w3.org/2000/svg" width="106.491" height="97.689" viewBox="0 0 106.491 97.689">
  <g id="组_455" data-name="组 455" transform="translate(-1621 -619)">
    <g id="组_451" data-name="组 451" transform="translate(492.246 -2.313)">
      <path id="路径_234" data-name="路径 234" d="M7135.3-574.169l-21.5-15.35a6.269,6.269,0,0,0-8.312,0c-4.33,3.632-18.863,14.524-18.863,14.524l18.939-35.049s2.1-5.953,9.681-1.3,28.87,12.324,28.87,12.324l-5.756,23.548Z" transform="translate(-5927.754 1293.155)" fill="#0061c8"/>
      <path id="减去_12" data-name="减去 12" d="M-6120.3,1379.689h-21.693a3.967,3.967,0,0,1-3.443-1.964,3.967,3.967,0,0,1-.064-3.961l49.241-89.688a3.951,3.951,0,0,1,3.506-2.075,3.952,3.952,0,0,1,3.507,2.075l49.241,89.688a3.967,3.967,0,0,1-.064,3.961,3.967,3.967,0,0,1-3.443,1.964h-23.568c-.35-.009-2.747-5.451-2.849-5.682l-.006.006-20.017-52.044a2.944,2.944,0,0,0-2.8-1.922,2.943,2.943,0,0,0-2.8,1.922l-20.605,53.575C-6116.706,1376.715-6118.2,1379.466-6120.3,1379.689Z" transform="translate(7274.754 -660.688)" fill="#0078f8"/>
    </g>
  </g>
</svg>
